<?xml version="1.0" encoding="utf-8"?>
<!-- Generator: Adobe Illustrator 26.1.0, SVG Export Plug-In . SVG Version: 6.00 Build 0)  -->
<svg version="1.1" id="Layer_1" xmlns="http://www.w3.org/2000/svg" xmlns:xlink="http://www.w3.org/1999/xlink" x="0px" y="0px"
	 viewBox="0 0 44 44" style="enable-background:new 0 0 44 44;" xml:space="preserve">
<style type="text/css">
	.st0{display:none;fill-rule:evenodd;clip-rule:evenodd;fill:url(#SVGID_1_);}
	.st1{display:none;fill:#FFFFFF;stroke:#F4F6FB;stroke-width:0.5;}
	.st2{fill-rule:evenodd;clip-rule:evenodd;fill:#416AB3;}
	.st3{opacity:0.12;fill-rule:evenodd;clip-rule:evenodd;fill:#061C32;enable-background:new    ;}
	.st4{fill-rule:evenodd;clip-rule:evenodd;fill:#FFFFFF;}
	.st5{fill:#416AB3;}
</style>
<linearGradient id="SVGID_1_" gradientUnits="userSpaceOnUse" x1="21.9384" y1="4.6938" x2="21.9384" y2="44.4552" gradientTransform="matrix(1 0 0 -1 0 46)">
	<stop  offset="0" style="stop-color:#3F74BA"/>
	<stop  offset="1" style="stop-color:#51B2E5"/>
</linearGradient>
<path class="st0" d="M1.56,20.02c0-10.42,9.12-18.87,20.38-18.87c11.25,0,20.38,8.45,20.38,18.87c0,10.42-9.12,18.87-20.38,18.87
	c-2.03,0-3.99-0.28-5.85-0.79L9.15,41.9v-7.19C4.52,31.25,1.56,25.95,1.56,20.02z M19.48,21.14l5.23,5.58L35.94,14.8l-10.08,5.58
	L20.5,14.8L9.27,26.72L19.48,21.14z"/>
<path class="st1" d="M7.49,2.84h29.74c3.14,0,5.69,2.55,5.69,5.69v27.12c0,3.14-2.55,5.69-5.69,5.69H7.49
	c-3.14,0-5.69-2.55-5.69-5.69V8.52C1.8,5.38,4.35,2.84,7.49,2.84z"/>
<path class="st2" d="M20.19,1.8h3.59c4.94,0,7.82,0.73,10.38,2.1c2.56,1.37,4.58,3.38,5.94,5.94c1.37,2.56,2.1,5.45,2.1,10.38v3.58
	c0,4.94-0.73,7.82-2.1,10.38c-1.37,2.56-3.38,4.58-5.94,5.94c-2.56,1.37-5.45,2.1-10.38,2.1h-3.58c-4.94,0-7.82-0.73-10.38-2.1
	c-2.56-1.37-4.58-3.38-5.94-5.94c-1.37-2.56-2.1-5.45-2.1-10.38v-3.58c0-4.94,0.73-7.82,2.1-10.38C5.26,7.28,7.27,5.26,9.83,3.9
	C12.37,2.53,15.27,1.8,20.19,1.8z"/>
<path class="st3" d="M42.21,23.21v0.59c0,4.94-0.73,7.82-2.1,10.38c-1.37,2.56-3.38,4.58-5.94,5.94c-2.56,1.37-5.45,2.1-10.38,2.1
	h-3.58c-4.04,0-6.71-0.49-8.94-1.41l-3.69-3.8L42.21,23.21z"/>
<path class="st4" d="M7.98,37.14c1.89,0.21,4.25-0.33,5.93-1.14c7.29,4.03,18.68,3.84,25.57-0.58c0.27-0.4,0.52-0.82,0.75-1.25
	c1.38-2.57,2.11-5.47,2.11-10.42v-3.59c0-4.95-0.73-7.85-2.11-10.42c-1.36-2.57-3.39-4.58-5.96-5.96
	c-2.57-1.38-5.47-2.11-10.42-2.11h-3.61c-4.22,0-6.96,0.53-9.26,1.55c-0.13,0.11-0.25,0.23-0.37,0.34
	c-6.75,6.51-7.27,20.62-1.54,28.29c0.01,0.01,0.01,0.02,0.02,0.03c0.88,1.3,0.03,3.58-1.3,4.91C7.58,36.99,7.66,37.11,7.98,37.14z"
	/>
<path class="st5" d="M18.39,15.5h-7.91v1.7h5.49l-5.42,6.71c-0.17,0.25-0.29,0.48-0.29,1v0.43h7.47c0.37,0,0.68-0.31,0.68-0.68
	v-0.91h-5.77l5.09-6.39c0.08-0.09,0.22-0.26,0.28-0.34l0.03-0.05c0.29-0.43,0.35-0.8,0.35-1.25V15.5z"/>
<path class="st5" d="M28.46,25.34h1.13V15.5h-1.7v9.27C27.89,25.08,28.14,25.34,28.46,25.34z"/>
<path class="st5" d="M22.66,17.69c-2.13,0-3.86,1.73-3.86,3.86s1.73,3.86,3.86,3.86c2.13,0,3.86-1.73,3.86-3.86
	C26.53,19.42,24.81,17.69,22.66,17.69z M22.66,23.82c-1.25,0-2.27-1.02-2.27-2.27c0-1.25,1.02-2.27,2.27-2.27
	c1.25,0,2.27,1.02,2.27,2.27C24.93,22.8,23.93,23.82,22.66,23.82z"/>
<path class="st5" d="M34.6,17.63c-2.14,0-3.89,1.74-3.89,3.89c0,2.14,1.74,3.89,3.89,3.89c2.14,0,3.89-1.74,3.89-3.89
	C38.49,19.37,36.75,17.63,34.6,17.63z M34.6,23.82c-1.27,0-2.28-1.02-2.28-2.28c0-1.27,1.02-2.28,2.28-2.28
	c1.27,0,2.28,1.02,2.28,2.28C36.89,22.8,35.87,23.82,34.6,23.82z"/>
<path class="st5" d="M25.63,25.34h0.91v-7.44h-1.59v6.77C24.95,25.04,25.26,25.34,25.63,25.34z"/>
</svg>
